<?xml version="1.0" encoding="UTF-8"?>
<svg id="Layer_1" xmlns="http://www.w3.org/2000/svg" version="1.1" viewBox="0 0 100 100">
  <!-- Generator: Adobe Illustrator 29.8.2, SVG Export Plug-In . SVG Version: 2.1.1 Build 3)  -->
  <defs>
    <style>
      .st0 {
        fill: #f2bdc4;
      }
    </style>
  </defs>
  <path class="st0" d="M34.28,90.9c-.62.81-1.18,1.47-1.85,2.03-2.88,2.43-6.14,2.17-8.54-.74-2.33-2.83-3.29-6.17-3.24-9.78.11-8.48,3.76-15.21,10.3-20.47.17-.13.33-.27.48-.44-1.55.49-3.06,1.09-4.65,1.46-6.35,1.48-12.57,1.29-18.55-1.57-2.73-1.31-5.04-3.14-6.72-5.7-.95-1.45-1.6-3.02-1.51-4.8.14-3.04,1.87-5.04,5-5.84.58-.15,1.18-.25,1.78-.38-.04-.27-.3-.3-.47-.41-1.2-.79-2.21-1.76-2.97-2.98-1.4-2.24-1.33-4.49.25-6.61,1.72-2.3,4.14-3.59,6.82-4.41,6.53-2.01,12.75-1.11,18.7,2.11,1.11.6,2.18,1.24,3.29,1.87-.51-.76-1.03-1.5-1.53-2.27-2.77-4.27-4.2-8.92-3.9-14.03.22-3.67,1.14-7.11,3.4-10.09.98-1.3,2.2-2.33,3.76-2.92,1.99-.75,3.77-.39,5.4.93.87.71,1.57,1.57,2.27,2.7.09-.86.13-1.5.29-2.13,1-3.9,4.27-5.71,8.38-4.6,3.26.88,5.68,2.93,7.63,5.58,2.49,3.38,3.7,7.25,4.26,11.36.5,3.69.33,7.33-.75,10.95.15-.24.31-.49.46-.73.15-.25.31-.5.46-.75,3.64-5.75,8.55-9.88,15.17-11.77,4.06-1.16,8.08-1.1,11.94.87.59.3,1.12.69,1.61,1.13,1.82,1.66,2.27,3.61,1.37,5.89-.43,1.09-1.04,2.08-1.79,3.16,1.67-.53,3.23-.59,4.79-.15,2.59.72,4.16,2.76,4.35,5.59.18,2.76-.68,5.24-2.04,7.57-3.3,5.67-8.45,8.96-14.48,11.06-2.4.84-4.88,1.32-7.42,1.51-.19.01-.39.05-.58.09-.07.01-.13.06-.28.13,2.02.38,3.92.87,5.74,1.65,6.33,2.73,11.15,6.99,13.69,13.53,1.14,2.95,1.57,5.98.68,9.09-1.08,3.77-4.05,5.36-7.8,4.21-.76-.23-1.5-.56-2.34-.88.42,1.04.85,2.01,1.05,3.05.7,3.65-1.24,6.48-5.01,7.27-3.51.73-6.84.03-10.03-1.39-6.05-2.69-10.15-7.34-13.01-13.19-.43-.87-.8-1.77-1.28-2.84.16,1.83.16,3.46-.03,5.08-.78,6.6-3.36,12.27-8.71,16.45-2.14,1.67-4.53,2.88-7.3,3.08-3.4.24-5.57-1.46-6.24-4.81-.17-.85-.2-1.72-.29-2.74ZM51.42,63.79s0,0,0,0c.12-2.04.25-4.08.37-6.13.02-.37-.03-.72.53-.76.47-.03.78-.06,1,.49.93,2.32,1.92,4.63,2.9,6.93.18.42.18.71-.11,1.11-.81,1.11-.3,2.68.96,3.14,1.2.44,2.44-.15,2.83-1.34.37-1.15-.27-2.3-1.51-2.65-.31-.09-.55-.18-.7-.53-1-2.43-2-4.86-3.05-7.27-.33-.76.34-.79.63-1.12.32-.37.55-.2.84.05,2.07,1.81,4.15,3.62,6.25,5.4.57.48,1.14.91.89,1.8-.08.28.08.57.21.83.52.99,1.73,1.45,2.75,1.03,1.01-.41,1.55-1.58,1.24-2.66-.29-1.02-1.34-1.62-2.49-1.4-.34.07-.61.14-.93-.14-2.33-2-4.67-3.98-7.02-5.97-.22-.19-.51-.37-.21-.7.3-.32.16-1.03,1-.86,3.55.72,7.12,1.39,10.68,2.05.36.07.52.2.65.55.4,1.04,1.54,1.58,2.56,1.29.89-.26,1.55-1.03,1.6-1.97.05-.88-.34-1.56-1.09-2.01-.78-.46-1.77-.35-2.52.26-.25.2-.42.48-.86.39-3.52-.66-7.04-1.28-10.56-1.93-.26-.05-.67.06-.66-.48,0-.45.24-.55.59-.67,3.46-1.22,6.92-2.45,10.38-3.7.49-.18.86-.18,1.34.12,1.11.7,2.48.25,3.02-.91.54-1.17-.01-2.5-1.21-2.93-1.22-.44-2.46.21-2.78,1.49-.09.38-.26.57-.61.71-3.44,1.29-6.9,2.53-10.37,3.71-.25.09-.61.34-.71-.11-.1-.46-.86-.77-.29-1.39,2.38-2.58,4.74-5.17,7.11-7.76.22-.24.41-.38.81-.32.95.15,1.92-.42,2.28-1.24.38-.86.18-1.82-.52-2.47-.67-.63-1.7-.75-2.51-.29-.81.45-1.25,1.39-.97,2.39.13.47-.02.71-.3,1.01-2.24,2.45-4.46,4.91-6.7,7.35-.17.19-.3.66-.73.33-.39-.3-.96-.39-.78-1.18.91-3.98,1.76-7.98,2.63-11.98.08-.36.23-.58.59-.74.95-.42,1.41-1.26,1.28-2.23-.11-.87-.79-1.6-1.63-1.75-1.02-.18-1.98.24-2.43,1.08-.43.82-.3,1.78.43,2.47.29.28.35.54.28.9-.84,3.95-1.68,7.9-2.52,11.85-.04.17-.03.4-.27.47-.68.19-1.31-.23-1.41-.94-.6-4.24-1.3-8.47-2.07-12.68-.1-.58-.19-1.05.33-1.57.68-.68.66-1.68.16-2.43-.5-.75-1.49-1.1-2.39-.85-.89.24-1.55,1.06-1.59,1.97-.04.9.46,1.71,1.4,2,.51.16.52.51.58.88.7,4.32,1.51,8.63,2.14,12.96.08.58-.03.78-.56,1.01-.61.26-.72-.13-.93-.46-2-3.26-3.99-6.52-6-9.77-.28-.45-.37-.79-.13-1.32.49-1.11-.24-2.44-1.42-2.77-1.21-.34-2.47.4-2.69,1.58-.23,1.24.55,2.48,1.72,2.5.76.01,1.05.4,1.38.94,2.02,3.3,4.04,6.6,6.1,9.88.32.51,0,.66-.22.96-.29.4-.52.18-.78,0-3.14-2.14-6.28-4.28-9.43-6.4-.3-.2-.4-.41-.41-.77-.01-1.02-.57-1.71-1.52-1.97-.96-.27-1.91.09-2.41.91-.49.81-.4,1.86.23,2.58.6.68,1.54.87,2.47.44.27-.13.46-.16.73.02,3.24,2.17,6.48,4.33,9.73,6.48.65.43.08.86.04,1.29-.04.43-.4.26-.63.23-3.87-.62-7.74-1.24-11.61-1.86-.31-.05-.5-.15-.6-.5-.28-.9-.94-1.41-1.87-1.52-.93-.11-1.81.43-2.17,1.29-.35.84-.1,1.86.61,2.45.73.61,1.8.72,2.56.1.48-.39.93-.41,1.47-.32,3.8.61,7.59,1.24,11.39,1.82.57.09.76.29.83.83.08.63-.39.59-.72.7-3.38,1.08-6.77,2.14-10.16,3.21-.44.14-.78.16-1.19-.17-.75-.6-1.86-.54-2.58.03-.72.57-.99,1.56-.66,2.44.32.85,1.13,1.39,2.05,1.36.97-.04,1.74-.6,1.96-1.55.1-.43.37-.52.69-.62,3.36-1.06,6.74-2.09,10.08-3.21.83-.28,1.36-.24,1.86.52.21.32.21.45-.02.72-2.12,2.38-4.24,4.78-6.35,7.17-.19.21-.36.31-.68.27-1.07-.14-1.83.32-2.23,1.25-.36.84-.08,1.92.64,2.52.68.57,1.81.61,2.59.08.79-.54,1.14-1.49.8-2.44-.13-.36-.06-.59.17-.85.62-.69,1.22-1.39,1.83-2.09,1.46-1.67,2.93-3.33,4.36-5.03.54-.64.95-.02,1.42.03.48.05.38.42.37.72-.04.8-.1,1.6-.14,2.41-.12,2.17-.23,4.33-.34,6.5-.02.39-.07.71-.49.96-.88.52-1.2,1.42-.95,2.31.27.95,1.06,1.58,2.02,1.62.96.04,1.84-.55,2.15-1.44.3-.86-.02-1.82-.88-2.43-.29-.2-.36-.4-.34-.72.06-.95.11-1.9.17-2.85Z"/>
</svg>